/* XPM */
static char *_ea5db59b7e04b2c8962290f4194e0cb[] = {
/* columns rows colors chars-per-pixel */
"64 64 2 1 ",
"  c #3A3C51",
". c None",
/* pixels */
"................................................................",
"................................................................",
".......................      ...................................",
".....................       ....................................",
"..................        ......................................",
".................        .......................................",
"................        ........................................",
"...............        ............      .......................",
"..............        .........             ....................",
".............        ........                 ..................",
"............        ........                    ................",
"............        .......                      ...............",
"...........        .......                        ..............",
"...........       .......            ..            .............",
"...........       ......          ........         .............",
"..........        ......        ............        ............",
"..........       ......        ..............       ............",
"..........       ......       ................       ...........",
"..........       .....       .................       ...........",
"..........       .....       ..................       ..........",
"..........      ......      .........  ........       ..........",
"..........      ......      ........    ........      ..........",
"..........      ......      .......      .......      ..........",
"..........      ......      .......      .......      ..........",
"..........      ......      .......      .......      ..........",
"..........      ......      .......      .......      ..........",
"..........      ......      .......      .......      ..........",
"..........      ......      .......      .......      ..........",
"..........      ......      .......      .......      ..........",
"..........      ......      .......      .......      ..........",
"..........      ......      .......      .......      ..........",
"..........      ......      .......      .......      ..........",
"..........      ......      .......      .......      ..........",
"..........      ......      .......      .......      ..........",
"..........      ......      .......      .......      ..........",
"..........      ......      .......      .......      ..........",
"..........      ......      .......      .......      ..........",
"..........      ......      .......      .......      ..........",
"..........      ......      .......      .......      ..........",
"..........      ......      .......      .......      ..........",
"..........      ......      .......      .......      ..........",
"..........      ......      .......      .......      ..........",
"..........      ......      .......      .......      ..........",
"..........      ......                   .......      ..........",
"..........      ......                   .......      ..........",
"..........      ......                   .......      ..........",
"..........      ......                   .......      ..........",
"..........      ......                   .......      ..........",
"..........      ......                   .......      ..........",
"..........      ................................      ..........",
"..........      ................................      ..........",
"..........      ................................      ..........",
"..........      ................................      ..........",
"..........      ................................      ..........",
"..........     ..................................     ..........",
"..........     ..................................     ..........",
"..........    ....................................    ..........",
"..........    ....................................    ..........",
"..........   ......................................   ..........",
"..........  ........................................  ..........",
".......... .......................................... ..........",
"................................................................",
"................................................................",
"................................................................"
};
