/* XPM */
static char *_d31d5b233974b57e4a521aba20776fd[] = {
/* columns rows colors chars-per-pixel */
"128 128 3 1 ",
"  c #3A3B51",
". c #3A3C51",
"X c None",
/* pixels */
"XXXXXXXXXXXXXXXXXXXXXXXXXXXXXXXXXXXXXXXXXXXXXXXXXXXXXXXXXXXXXXXXXXXXXXXXXXXXXXXXXXXXXXXXXXXXXXXXXXXXXXXXXXXXXXXXXXXXXXXXXXXXXXXX",
"XXXXXXXXXXXXXXXXXXXXXXXXXXXXXXXXXXXXXXXXXXXXXXXXXXXXXXXXXXXXXXXXXXXXXXXXXXXXXXXXXXXXXXXXXXXXXXXXXXXXXXXXXXXXXXXXXXXXXXXXXXXXXXXX",
"XXXXXXXXXXXXXXXXXXXXXXXXXXXXXXXXXXXXXXXXXXXXXXXXXXXXXXXXXXXXXXXXXXXXXXXXXXXXXXXXXXXXXXXXXXXXXXXXXXXXXXXXXXXXXXXXXXXXXXXXXXXXXXXX",
"XXXXXXXXXXXXXXXXXXXXXXXXXXXXXXXXXXXXXXXXXXXXXXXXXXXXXXXXXXXXXXXXXXXXXXXXXXXXXXXXXXXXXXXXXXXXXXXXXXXXXXXXXXXXXXXXXXXXXXXXXXXXXXXX",
"XXXXXXXXXXXXXXXXXXXXXXXXXXXXXXXXXXXXXXXXXXXXXXXXXXXXXXXXXXXXXXXXXXXXXXXXXXXXXXXXXXXXXXXXXXXXXXXXXXXXXXXXXXXXXXXXXXXXXXXXXXXXXXXX",
"XXXXXXXXXXXXXXXXXXXXXXXXXXXXXXXXXXXXXXXXXXXXXXX...........XXXXXXXXXXXXXXXXXXXXXXXXXXXXXXXXXXXXXXXXXXXXXXXXXXXXXXXXXXXXXXXXXXXXXX",
"XXXXXXXXXXXXXXXXXXXXXXXXXXXXXXXXXXXXXXXXXXX..............XXXXXXXXXXXXXXXXXXXXXXXXXXXXXXXXXXXXXXXXXXXXXXXXXXXXXXXXXXXXXXXXXXXXXXX",
"XXXXXXXXXXXXXXXXXXXXXXXXXXXXXXXXXXXXXXXX...............XXXXXXXXXXXXXXXXXXXXXXXXXXXXXXXXXXXXXXXXXXXXXXXXXXXXXXXXXXXXXXXXXXXXXXXXX",
"XXXXXXXXXXXXXXXXXXXXXXXXXXXXXXXXXXXXXX...............XXXXXXXXXXXXXXXXXXXXXXXXXXXXXXXXXXXXXXXXXXXXXXXXXXXXXXXXXXXXXXXXXXXXXXXXXXX",
"XXXXXXXXXXXXXXXXXXXXXXXXXXXXXXXXXXXX................XXXXXXXXXXXXXXXXXXXXXXXXXXXXXXXXXXXXXXXXXXXXXXXXXXXXXXXXXXXXXXXXXXXXXXXXXXXX",
"XXXXXXXXXXXXXXXXXXXXXXXXXXXXXXXXXX.................XXXXXXXXXXXXXXXXXXXXXXXXXXXXXXXXXXXXXXXXXXXXXXXXXXXXXXXXXXXXXXXXXXXXXXXXXXXXX",
"XXXXXXXXXXXXXXXXXXXXXXXXXXXXXXXXX................XXXXXXXXXXXXXXXXXXXXXXXXXXXXXXXXXXXXXXXXXXXXXXXXXXXXXXXXXXXXXXXXXXXXXXXXXXXXXXX",
"XXXXXXXXXXXXXXXXXXXXXXXXXXXXXXXX................XXXXXXXXXXXXXXXXXXXXXXXXXXXXXXXXXXXXXXXXXXXXXXXXXXXXXXXXXXXXXXXXXXXXXXXXXXXXXXXX",
"XXXXXXXXXXXXXXXXXXXXXXXXXXXXXXX................XXXXXXXXXXXXXXXXXXXXXXXXXXXXXXXXXXXXXXXXXXXXXXXXXXXXXXXXXXXXXXXXXXXXXXXXXXXXXXXXX",
"XXXXXXXXXXXXXXXXXXXXXXXXXXXXXX................XXXXXXXXXXXXXXXXXXXXXXXXXX.......XXXXXXXXXXXXXXXXXXXXXXXXXXXXXXXXXXXXXXXXXXXXXXXXX",
"XXXXXXXXXXXXXXXXXXXXXXXXXXXXX................XXXXXXXXXXXXXXXXXXXXXX.................XXXXXXXXXXXXXXXXXXXXXXXXXXXXXXXXXXXXXXXXXXXX",
"XXXXXXXXXXXXXXXXXXXXXXXXXXXX................XXXXXXXXXXXXXXXXXXXX.......................XXXXXXXXXXXXXXXXXXXXXXXXXXXXXXXXXXXXXXXXX",
"XXXXXXXXXXXXXXXXXXXXXXXXXXX................XXXXXXXXXXXXXXXXXXX............................XXXXXXXXXXXXXXXXXXXXXXXXXXXXXXXXXXXXXX",
"XXXXXXXXXXXXXXXXXXXXXXXXXX................XXXXXXXXXXXXXXXXXX...............................XXXXXXXXXXXXXXXXXXXXXXXXXXXXXXXXXXXXX",
"XXXXXXXXXXXXXXXXXXXXXXXXX.................XXXXXXXXXXXXXXXX...................................XXXXXXXXXXXXXXXXXXXXXXXXXXXXXXXXXXX",
"XXXXXXXXXXXXXXXXXXXXXXXXX................XXXXXXXXXXXXXXXX......................................XXXXXXXXXXXXXXXXXXXXXXXXXXXXXXXXX",
"XXXXXXXXXXXXXXXXXXXXXXXX................XXXXXXXXXXXXXXX.........................................XXXXXXXXXXXXXXXXXXXXXXXXXXXXXXXX",
"XXXXXXXXXXXXXXXXXXXXXXXX...............XXXXXXXXXXXXXXX...........................................XXXXXXXXXXXXXXXXXXXXXXXXXXXXXXX",
"XXXXXXXXXXXXXXXXXXXXXXX................XXXXXXXXXXXXXX.............................................XXXXXXXXXXXXXXXXXXXXXXXXXXXXXX",
"XXXXXXXXXXXXXXXXXXXXXXX...............XXXXXXXXXXXXXX...............................................XXXXXXXXXXXXXXXXXXXXXXXXXXXXX",
"XXXXXXXXXXXXXXXXXXXXXX................XXXXXXXXXXXXX.................................................XXXXXXXXXXXXXXXXXXXXXXXXXXXX",
"XXXXXXXXXXXXXXXXXXXXXX...............XXXXXXXXXXXXX...................................................XXXXXXXXXXXXXXXXXXXXXXXXXXX",
"XXXXXXXXXXXXXXXXXXXXXX...............XXXXXXXXXXXXX.....................XXXXXXXXX......................XXXXXXXXXXXXXXXXXXXXXXXXXX",
"XXXXXXXXXXXXXXXXXXXXX...............XXXXXXXXXXXXX...................XXXXXXXXXXXXXXX...................XXXXXXXXXXXXXXXXXXXXXXXXXX",
"XXXXXXXXXXXXXXXXXXXXX...............XXXXXXXXXXXX..................XXXXXXXXXXXXXXXXXXX..................XXXXXXXXXXXXXXXXXXXXXXXXX",
"XXXXXXXXXXXXXXXXXXXXX..............XXXXXXXXXXXXX................XXXXXXXXXXXXXXXXXXXXXXX................ XXXXXXXXXXXXXXXXXXXXXXXX",
"XXXXXXXXXXXXXXXXXXXXX..............XXXXXXXXXXXX................XXXXXXXXXXXXXXXXXXXXXXXXX................XXXXXXXXXXXXXXXXXXXXXXXX",
"XXXXXXXXXXXXXXXXXXXX...............XXXXXXXXXXXX...............XXXXXXXXXXXXXXXXXXXXXXXXXXX................XXXXXXXXXXXXXXXXXXXXXXX",
"XXXXXXXXXXXXXXXXXXXX..............XXXXXXXXXXXX.............. XXXXXXXXXXXXXXXXXXXXXXXXXXXXX...............XXXXXXXXXXXXXXXXXXXXXXX",
"XXXXXXXXXXXXXXXXXXXX..............XXXXXXXXXXXX..............XXXXXXXXXXXXXXXXXXXXXXXXXXXXXXX...............XXXXXXXXXXXXXXXXXXXXXX",
"XXXXXXXXXXXXXXXXXXXX..............XXXXXXXXXXX..............XXXXXXXXXXXXXXXXXXXXXXXXXXXXXXXXX..............XXXXXXXXXXXXXXXXXXXXXX",
"XXXXXXXXXXXXXXXXXXXX..............XXXXXXXXXXX..............XXXXXXXXXXXXXXXXXXXXXXXXXXXXXXXXXX.............XXXXXXXXXXXXXXXXXXXXXX",
"XXXXXXXXXXXXXXXXXXXX.............XXXXXXXXXXXX.............XXXXXXXXXXXXXXXXXXXXXXXXXXXXXXXXXXX..............XXXXXXXXXXXXXXXXXXXXX",
"XXXXXXXXXXXXXXXXXXXX.............XXXXXXXXXXX..............XXXXXXXXXXXXXXXXXXXXXXXXXXXXXXXXXXXX.............XXXXXXXXXXXXXXXXXXXXX",
"XXXXXXXXXXXXXXXXXXXX.............XXXXXXXXXXX.............XXXXXXXXXXXXXXXXXXXXXXXXXXXXXXXXXXXXX.............XXXXXXXXXXXXXXXXXXXXX",
"XXXXXXXXXXXXXXXXXXXX.............XXXXXXXXXXX.............XXXXXXXXXXXXXXXXXXXXXXXXXXXXXXXXXXXXX.............XXXXXXXXXXXXXXXXXXXXX",
"XXXXXXXXXXXXXXXXXXXX.............XXXXXXXXXXX.............XXXXXXXXXXXXXXXX.....XXXXXXXXXXXXXXXXX.............XXXXXXXXXXXXXXXXXXXX",
"XXXXXXXXXXXXXXXXXXXX.............XXXXXXXXXXX............XXXXXXXXXXXXXXXX........XXXXXXXXXXXXXXX.............XXXXXXXXXXXXXXXXXXXX",
"XXXXXXXXXXXXXXXXXXXX.............XXXXXXXXXX.............XXXXXXXXXXXXXXX..........XXXXXXXXXXXXXX.............XXXXXXXXXXXXXXXXXXXX",
"XXXXXXXXXXXXXXXXXXXX.............XXXXXXXXXX.............XXXXXXXXXXXXXX...........XXXXXXXXXXXXXX.............XXXXXXXXXXXXXXXXXXXX",
"XXXXXXXXXXXXXXXXXXXX............XXXXXXXXXXX.............XXXXXXXXXXXXXX...........XXXXXXXXXXXXXX.............XXXXXXXXXXXXXXXXXXXX",
"XXXXXXXXXXXXXXXXXXXX.............XXXXXXXXXX.............XXXXXXXXXXXXXX...........XXXXXXXXXXXXXX.............XXXXXXXXXXXXXXXXXXXX",
"XXXXXXXXXXXXXXXXXXXX.............XXXXXXXXXX.............XXXXXXXXXXXXXX...........XXXXXXXXXXXXXX.............XXXXXXXXXXXXXXXXXXXX",
"XXXXXXXXXXXXXXXXXXXX.............XXXXXXXXXX.............XXXXXXXXXXXXXX...........XXXXXXXXXXXXXX.............XXXXXXXXXXXXXXXXXXXX",
"XXXXXXXXXXXXXXXXXXXX.............XXXXXXXXXX.............XXXXXXXXXXXXXX...........XXXXXXXXXXXXXX.............XXXXXXXXXXXXXXXXXXXX",
"XXXXXXXXXXXXXXXXXXXX.............XXXXXXXXXX.............XXXXXXXXXXXXXX...........XXXXXXXXXXXXXX.............XXXXXXXXXXXXXXXXXXXX",
"XXXXXXXXXXXXXXXXXXXX.............XXXXXXXXXX.............XXXXXXXXXXXXXX...........XXXXXXXXXXXXXX.............XXXXXXXXXXXXXXXXXXXX",
"XXXXXXXXXXXXXXXXXXXX.............XXXXXXXXXX.............XXXXXXXXXXXXXX...........XXXXXXXXXXXXXX.............XXXXXXXXXXXXXXXXXXXX",
"XXXXXXXXXXXXXXXXXXXX.............XXXXXXXXXX.............XXXXXXXXXXXXXX...........XXXXXXXXXXXXXX.............XXXXXXXXXXXXXXXXXXXX",
"XXXXXXXXXXXXXXXXXXXX.............XXXXXXXXXX.............XXXXXXXXXXXXXX...........XXXXXXXXXXXXXX.............XXXXXXXXXXXXXXXXXXXX",
"XXXXXXXXXXXXXXXXXXXX.............XXXXXXXXXX.............XXXXXXXXXXXXXX...........XXXXXXXXXXXXXX.............XXXXXXXXXXXXXXXXXXXX",
"XXXXXXXXXXXXXXXXXXXX.............XXXXXXXXXX.............XXXXXXXXXXXXXX...........XXXXXXXXXXXXXX.............XXXXXXXXXXXXXXXXXXXX",
"XXXXXXXXXXXXXXXXXXXX.............XXXXXXXXXX.............XXXXXXXXXXXXXX...........XXXXXXXXXXXXXX.............XXXXXXXXXXXXXXXXXXXX",
"XXXXXXXXXXXXXXXXXXXX.............XXXXXXXXXX.............XXXXXXXXXXXXXX...........XXXXXXXXXXXXXX.............XXXXXXXXXXXXXXXXXXXX",
"XXXXXXXXXXXXXXXXXXXX.............XXXXXXXXXX.............XXXXXXXXXXXXXX...........XXXXXXXXXXXXXX.............XXXXXXXXXXXXXXXXXXXX",
"XXXXXXXXXXXXXXXXXXXX.............XXXXXXXXXX.............XXXXXXXXXXXXXX...........XXXXXXXXXXXXXX.............XXXXXXXXXXXXXXXXXXXX",
"XXXXXXXXXXXXXXXXXXXX.............XXXXXXXXXX.............XXXXXXXXXXXXXX...........XXXXXXXXXXXXXX.............XXXXXXXXXXXXXXXXXXXX",
"XXXXXXXXXXXXXXXXXXXX.............XXXXXXXXXX.............XXXXXXXXXXXXXX...........XXXXXXXXXXXXXX.............XXXXXXXXXXXXXXXXXXXX",
"XXXXXXXXXXXXXXXXXXXX.............XXXXXXXXXX.............XXXXXXXXXXXXXX...........XXXXXXXXXXXXXX.............XXXXXXXXXXXXXXXXXXXX",
"XXXXXXXXXXXXXXXXXXXX.............XXXXXXXXXX.............XXXXXXXXXXXXXX...........XXXXXXXXXXXXXX.............XXXXXXXXXXXXXXXXXXXX",
"XXXXXXXXXXXXXXXXXXXX.............XXXXXXXXXX.............XXXXXXXXXXXXXX...........XXXXXXXXXXXXXX.............XXXXXXXXXXXXXXXXXXXX",
"XXXXXXXXXXXXXXXXXXXX.............XXXXXXXXXX.............XXXXXXXXXXXXXX...........XXXXXXXXXXXXXX.............XXXXXXXXXXXXXXXXXXXX",
"XXXXXXXXXXXXXXXXXXXX.............XXXXXXXXXX.............XXXXXXXXXXXXXX...........XXXXXXXXXXXXXX.............XXXXXXXXXXXXXXXXXXXX",
"XXXXXXXXXXXXXXXXXXXX.............XXXXXXXXXX.............XXXXXXXXXXXXXX...........XXXXXXXXXXXXXX.............XXXXXXXXXXXXXXXXXXXX",
"XXXXXXXXXXXXXXXXXXXX.............XXXXXXXXXX.............XXXXXXXXXXXXXX...........XXXXXXXXXXXXXX.............XXXXXXXXXXXXXXXXXXXX",
"XXXXXXXXXXXXXXXXXXXX.............XXXXXXXXXX.............XXXXXXXXXXXXXX...........XXXXXXXXXXXXXX.............XXXXXXXXXXXXXXXXXXXX",
"XXXXXXXXXXXXXXXXXXXX.............XXXXXXXXXX.............XXXXXXXXXXXXXX...........XXXXXXXXXXXXXX.............XXXXXXXXXXXXXXXXXXXX",
"XXXXXXXXXXXXXXXXXXXX.............XXXXXXXXXX.............XXXXXXXXXXXXXX...........XXXXXXXXXXXXXX.............XXXXXXXXXXXXXXXXXXXX",
"XXXXXXXXXXXXXXXXXXXX.............XXXXXXXXXX.............XXXXXXXXXXXXXX...........XXXXXXXXXXXXXX.............XXXXXXXXXXXXXXXXXXXX",
"XXXXXXXXXXXXXXXXXXXX.............XXXXXXXXXX.............XXXXXXXXXXXXXX...........XXXXXXXXXXXXXX.............XXXXXXXXXXXXXXXXXXXX",
"XXXXXXXXXXXXXXXXXXXX.............XXXXXXXXXX.............XXXXXXXXXXXXXX...........XXXXXXXXXXXXXX.............XXXXXXXXXXXXXXXXXXXX",
"XXXXXXXXXXXXXXXXXXXX.............XXXXXXXXXX.............XXXXXXXXXXXXXX...........XXXXXXXXXXXXXX.............XXXXXXXXXXXXXXXXXXXX",
"XXXXXXXXXXXXXXXXXXXX.............XXXXXXXXXX.............XXXXXXXXXXXXXX...........XXXXXXXXXXXXXX.............XXXXXXXXXXXXXXXXXXXX",
"XXXXXXXXXXXXXXXXXXXX.............XXXXXXXXXX.............XXXXXXXXXXXXXX...........XXXXXXXXXXXXXX.............XXXXXXXXXXXXXXXXXXXX",
"XXXXXXXXXXXXXXXXXXXX.............XXXXXXXXXX.............XXXXXXXXXXXXXX...........XXXXXXXXXXXXXX.............XXXXXXXXXXXXXXXXXXXX",
"XXXXXXXXXXXXXXXXXXXX.............XXXXXXXXXX.............XXXXXXXXXXXXXX...........XXXXXXXXXXXXXX.............XXXXXXXXXXXXXXXXXXXX",
"XXXXXXXXXXXXXXXXXXXX.............XXXXXXXXXX.............XXXXXXXXXXXXXX...........XXXXXXXXXXXXXX.............XXXXXXXXXXXXXXXXXXXX",
"XXXXXXXXXXXXXXXXXXXX.............XXXXXXXXXX.............XXXXXXXXXXXXXX...........XXXXXXXXXXXXXX.............XXXXXXXXXXXXXXXXXXXX",
"XXXXXXXXXXXXXXXXXXXX.............XXXXXXXXXX.............XXXXXXXXXXXXXX...........XXXXXXXXXXXXXX.............XXXXXXXXXXXXXXXXXXXX",
"XXXXXXXXXXXXXXXXXXXX.............XXXXXXXXXX.............XXXXXXXXXXXXXX...........XXXXXXXXXXXXXX.............XXXXXXXXXXXXXXXXXXXX",
"XXXXXXXXXXXXXXXXXXXX.............XXXXXXXXXX.............XXXXXXXXXXXXXX...........XXXXXXXXXXXXXX.............XXXXXXXXXXXXXXXXXXXX",
"XXXXXXXXXXXXXXXXXXXX.............XXXXXXXXXX......................................XXXXXXXXXXXXXX.............XXXXXXXXXXXXXXXXXXXX",
"XXXXXXXXXXXXXXXXXXXX.............XXXXXXXXXX......................................XXXXXXXXXXXXXX.............XXXXXXXXXXXXXXXXXXXX",
"XXXXXXXXXXXXXXXXXXXX.............XXXXXXXXXX......................................XXXXXXXXXXXXXX.............XXXXXXXXXXXXXXXXXXXX",
"XXXXXXXXXXXXXXXXXXXX.............XXXXXXXXXX......................................XXXXXXXXXXXXXX.............XXXXXXXXXXXXXXXXXXXX",
"XXXXXXXXXXXXXXXXXXXX.............XXXXXXXXXX......................................XXXXXXXXXXXXXX.............XXXXXXXXXXXXXXXXXXXX",
"XXXXXXXXXXXXXXXXXXXX.............XXXXXXXXXX......................................XXXXXXXXXXXXXX.............XXXXXXXXXXXXXXXXXXXX",
"XXXXXXXXXXXXXXXXXXXX.............XXXXXXXXXX......................................XXXXXXXXXXXXXX.............XXXXXXXXXXXXXXXXXXXX",
"XXXXXXXXXXXXXXXXXXXX.............XXXXXXXXXX......................................XXXXXXXXXXXXXX.............XXXXXXXXXXXXXXXXXXXX",
"XXXXXXXXXXXXXXXXXXXX.............XXXXXXXXXX......................................XXXXXXXXXXXXXX.............XXXXXXXXXXXXXXXXXXXX",
"XXXXXXXXXXXXXXXXXXXX.............XXXXXXXXXX......................................XXXXXXXXXXXXXX.............XXXXXXXXXXXXXXXXXXXX",
"XXXXXXXXXXXXXXXXXXXX.............XXXXXXXXXX......................................XXXXXXXXXXXXXX.............XXXXXXXXXXXXXXXXXXXX",
"XXXXXXXXXXXXXXXXXXXX.............XXXXXXXXXX.......................................XXXXXXXXXXXXX.............XXXXXXXXXXXXXXXXXXXX",
"XXXXXXXXXXXXXXXXXXXX.............XXXXXXXXXXXXXXXXXXXXXXXXXXXXXXXXXXXXXXXXXXXXXXXXXXXXXXXXXXXXXX.............XXXXXXXXXXXXXXXXXXXX",
"XXXXXXXXXXXXXXXXXXXX.............XXXXXXXXXXXXXXXXXXXXXXXXXXXXXXXXXXXXXXXXXXXXXXXXXXXXXXXXXXXXXX.............XXXXXXXXXXXXXXXXXXXX",
"XXXXXXXXXXXXXXXXXXXX.............XXXXXXXXXXXXXXXXXXXXXXXXXXXXXXXXXXXXXXXXXXXXXXXXXXXXXXXXXXXXXX.............XXXXXXXXXXXXXXXXXXXX",
"XXXXXXXXXXXXXXXXXXXX............XXXXXXXXXXXXXXXXXXXXXXXXXXXXXXXXXXXXXXXXXXXXXXXXXXXXXXXXXXXXXXXX............XXXXXXXXXXXXXXXXXXXX",
"XXXXXXXXXXXXXXXXXXXX............XXXXXXXXXXXXXXXXXXXXXXXXXXXXXXXXXXXXXXXXXXXXXXXXXXXXXXXXXXXXXXXX............XXXXXXXXXXXXXXXXXXXX",
"XXXXXXXXXXXXXXXXXXXX............XXXXXXXXXXXXXXXXXXXXXXXXXXXXXXXXXXXXXXXXXXXXXXXXXXXXXXXXXXXXXXXX............XXXXXXXXXXXXXXXXXXXX",
"XXXXXXXXXXXXXXXXXXXX............XXXXXXXXXXXXXXXXXXXXXXXXXXXXXXXXXXXXXXXXXXXXXXXXXXXXXXXXXXXXXXXX............XXXXXXXXXXXXXXXXXXXX",
"XXXXXXXXXXXXXXXXXXXX............XXXXXXXXXXXXXXXXXXXXXXXXXXXXXXXXXXXXXXXXXXXXXXXXXXXXXXXXXXXXXXXX............XXXXXXXXXXXXXXXXXXXX",
"XXXXXXXXXXXXXXXXXXXX...........XXXXXXXXXXXXXXXXXXXXXXXXXXXXXXXXXXXXXXXXXXXXXXXXXXXXXXXXXXXXXXXXXX...........XXXXXXXXXXXXXXXXXXXX",
"XXXXXXXXXXXXXXXXXXXX...........XXXXXXXXXXXXXXXXXXXXXXXXXXXXXXXXXXXXXXXXXXXXXXXXXXXXXXXXXXXXXXXXXX...........XXXXXXXXXXXXXXXXXXXX",
"XXXXXXXXXXXXXXXXXXXX...........XXXXXXXXXXXXXXXXXXXXXXXXXXXXXXXXXXXXXXXXXXXXXXXXXXXXXXXXXXXXXXXXXX...........XXXXXXXXXXXXXXXXXXXX",
"XXXXXXXXXXXXXXXXXXXX..........XXXXXXXXXXXXXXXXXXXXXXXXXXXXXXXXXXXXXXXXXXXXXXXXXXXXXXXXXXXXXXXXXXXX..........XXXXXXXXXXXXXXXXXXXX",
"XXXXXXXXXXXXXXXXXXXX..........XXXXXXXXXXXXXXXXXXXXXXXXXXXXXXXXXXXXXXXXXXXXXXXXXXXXXXXXXXXXXXXXXXXX..........XXXXXXXXXXXXXXXXXXXX",
"XXXXXXXXXXXXXXXXXXXX.........XXXXXXXXXXXXXXXXXXXXXXXXXXXXXXXXXXXXXXXXXXXXXXXXXXXXXXXXXXXXXXXXXXXXXX.........XXXXXXXXXXXXXXXXXXXX",
"XXXXXXXXXXXXXXXXXXXX.........XXXXXXXXXXXXXXXXXXXXXXXXXXXXXXXXXXXXXXXXXXXXXXXXXXXXXXXXXXXXXXXXXXXXXX.........XXXXXXXXXXXXXXXXXXXX",
"XXXXXXXXXXXXXXXXXXXX........XXXXXXXXXXXXXXXXXXXXXXXXXXXXXXXXXXXXXXXXXXXXXXXXXXXXXXXXXXXXXXXXXXXXXXXX........XXXXXXXXXXXXXXXXXXXX",
"XXXXXXXXXXXXXXXXXXXX........XXXXXXXXXXXXXXXXXXXXXXXXXXXXXXXXXXXXXXXXXXXXXXXXXXXXXXXXXXXXXXXXXXXXXXXX........XXXXXXXXXXXXXXXXXXXX",
"XXXXXXXXXXXXXXXXXXXX.......XXXXXXXXXXXXXXXXXXXXXXXXXXXXXXXXXXXXXXXXXXXXXXXXXXXXXXXXXXXXXXXXXXXXXXXXXX.......XXXXXXXXXXXXXXXXXXXX",
"XXXXXXXXXXXXXXXXXXXX......XXXXXXXXXXXXXXXXXXXXXXXXXXXXXXXXXXXXXXXXXXXXXXXXXXXXXXXXXXXXXXXXXXXXXXXXXXXX......XXXXXXXXXXXXXXXXXXXX",
"XXXXXXXXXXXXXXXXXXXX......XXXXXXXXXXXXXXXXXXXXXXXXXXXXXXXXXXXXXXXXXXXXXXXXXXXXXXXXXXXXXXXXXXXXXXXXXXXX......XXXXXXXXXXXXXXXXXXXX",
"XXXXXXXXXXXXXXXXXXXX.....XXXXXXXXXXXXXXXXXXXXXXXXXXXXXXXXXXXXXXXXXXXXXXXXXXXXXXXXXXXXXXXXXXXXXXXXXXXXXX.....XXXXXXXXXXXXXXXXXXXX",
"XXXXXXXXXXXXXXXXXXXX....XXXXXXXXXXXXXXXXXXXXXXXXXXXXXXXXXXXXXXXXXXXXXXXXXXXXXXXXXXXXXXXXXXXXXXXXXXXXXXXX....XXXXXXXXXXXXXXXXXXXX",
"XXXXXXXXXXXXXXXXXXXX...XXXXXXXXXXXXXXXXXXXXXXXXXXXXXXXXXXXXXXXXXXXXXXXXXXXXXXXXXXXXXXXXXXXXXXXXXXXXXXXXXX...XXXXXXXXXXXXXXXXXXXX",
"XXXXXXXXXXXXXXXXXXXX..XXXXXXXXXXXXXXXXXXXXXXXXXXXXXXXXXXXXXXXXXXXXXXXXXXXXXXXXXXXXXXXXXXXXXXXXXXXXXXXXXXXX..XXXXXXXXXXXXXXXXXXXX",
"XXXXXXXXXXXXXXXXXXXX.XXXXXXXXXXXXXXXXXXXXXXXXXXXXXXXXXXXXXXXXXXXXXXXXXXXXXXXXXXXXXXXXXXXXXXXXXXXXXXXXXXXXXX.XXXXXXXXXXXXXXXXXXXX",
"XXXXXXXXXXXXXXXXXXXXXXXXXXXXXXXXXXXXXXXXXXXXXXXXXXXXXXXXXXXXXXXXXXXXXXXXXXXXXXXXXXXXXXXXXXXXXXXXXXXXXXXXXXXXXXXXXXXXXXXXXXXXXXXX",
"XXXXXXXXXXXXXXXXXXXXXXXXXXXXXXXXXXXXXXXXXXXXXXXXXXXXXXXXXXXXXXXXXXXXXXXXXXXXXXXXXXXXXXXXXXXXXXXXXXXXXXXXXXXXXXXXXXXXXXXXXXXXXXXX",
"XXXXXXXXXXXXXXXXXXXXXXXXXXXXXXXXXXXXXXXXXXXXXXXXXXXXXXXXXXXXXXXXXXXXXXXXXXXXXXXXXXXXXXXXXXXXXXXXXXXXXXXXXXXXXXXXXXXXXXXXXXXXXXXX",
"XXXXXXXXXXXXXXXXXXXXXXXXXXXXXXXXXXXXXXXXXXXXXXXXXXXXXXXXXXXXXXXXXXXXXXXXXXXXXXXXXXXXXXXXXXXXXXXXXXXXXXXXXXXXXXXXXXXXXXXXXXXXXXXX",
"XXXXXXXXXXXXXXXXXXXXXXXXXXXXXXXXXXXXXXXXXXXXXXXXXXXXXXXXXXXXXXXXXXXXXXXXXXXXXXXXXXXXXXXXXXXXXXXXXXXXXXXXXXXXXXXXXXXXXXXXXXXXXXXX"
};
