/* XPM */
static char *_6b8e01391b645e2a7830d078da098bf[] = {
/* columns rows colors chars-per-pixel */
"32 32 2 1 ",
"  c #3A3C51",
". c None",
/* pixels */
"................................",
"...........   ..................",
".........    ...................",
"........    ....................",
".......    ....        .........",
"......    ....          ........",
"......   ....            .......",
".....    ...    .....     ......",
".....    ..    ........   ......",
".....   ...    ........    .....",
".....   ...   ....  ....   .....",
".....   ...   ...   ....   .....",
".....   ...   ...   ....   .....",
".....   ...   ...   ....   .....",
".....   ...   ...   ....   .....",
".....   ...   ...   ....   .....",
".....   ...   ...   ....   .....",
".....   ...   ...   ....   .....",
".....   ...   ...   ....   .....",
".....   ...   ...   ....   .....",
".....   ...   ....  ....   .....",
".....   ...         ....   .....",
".....   ...         ....   .....",
".....   ...         ....   .....",
".....   ...         ....   .....",
".....   ................   .....",
".....   ................   .....",
".....   ................   .....",
".....  ..................  .....",
"..... .................... .....",
"................................",
"................................"
};
