/* XPM */
static char *_f5c9891a5b54f53dde8151b40dddd63[] = {
/* columns rows colors chars-per-pixel */
"16 16 2 1 ",
"  c #3A3C51",
". c None",
/* pixels */
".....  .........",
"....  ..........",
"...  ..     ....",
"..   .   .   ...",
"..  .. ....   ..",
"..  .  .. ..  ..",
"..  .  .. ..  ..",
"..  .  .. ..  ..",
"..  .  .. ..  ..",
"..  .  .. ..  ..",
"..  .  .  ..  ..",
"..  .     ..  ..",
"..  ........  ..",
"..  ........  ..",
"..  ........  ..",
"................"
};
